<svg width="150" height="140" viewBox="0 0 150 140" fill="none" xmlns="http://www.w3.org/2000/svg">
<g clip-path="url(#clip0_2001_67)">
<path d="M0.00994478 99.8006C0.0205786 99.8556 0.0373475 99.9093 0.0599374 99.9606C0.069936 99.9906 0.0799345 100.031 0.089933 100.061L11.4983 119.818L11.5283 119.848C11.5483 119.878 11.5682 119.908 11.5982 119.948C11.6368 119.99 11.6805 120.026 11.7282 120.058C11.7582 120.078 11.7782 120.108 11.8082 120.128C11.8199 120.136 11.8341 120.139 11.8482 120.138C11.9614 120.201 12.0885 120.235 12.2182 120.238H57.3515L68.5199 139.575L68.5499 139.605C68.5699 139.635 68.5899 139.665 68.6199 139.705C68.6585 139.747 68.7021 139.784 68.7499 139.815C68.7799 139.835 68.7998 139.865 68.8298 139.885C68.8416 139.893 68.8557 139.896 68.8698 139.895C68.983 139.958 69.1101 139.992 69.2398 139.995H137.68C137.813 139.992 137.943 139.958 138.06 139.895L138.15 139.835C138.235 139.778 138.309 139.707 138.37 139.625C138.38 139.605 138.41 139.595 138.42 139.575L149.828 119.818C149.838 119.798 149.838 119.788 149.848 119.768C149.866 119.736 149.879 119.703 149.888 119.668C149.898 119.628 149.908 119.598 149.918 119.558C149.926 119.522 149.93 119.485 149.928 119.448C149.928 119.428 149.938 119.418 149.938 119.398C149.938 119.378 149.928 119.368 149.928 119.348C149.928 119.308 149.918 119.278 149.918 119.238C149.918 119.198 149.898 119.168 149.888 119.128C149.876 119.094 149.863 119.06 149.848 119.028C149.838 119.008 149.838 118.998 149.828 118.978L127.261 79.8935L138.42 60.5564C138.43 60.5364 138.43 60.5264 138.44 60.5064C138.457 60.4749 138.471 60.4413 138.48 60.4064C138.49 60.3664 138.5 60.3364 138.51 60.2964C138.518 60.2604 138.521 60.2234 138.52 60.1864C138.52 60.1664 138.53 60.1564 138.53 60.1364C138.53 60.1164 138.52 60.1064 138.52 60.0864C138.52 60.0464 138.51 60.0164 138.51 59.9765C138.51 59.9365 138.49 59.9065 138.48 59.8665C138.468 59.8325 138.455 59.7991 138.44 59.7665C138.43 59.7465 138.43 59.7365 138.42 59.7165L104.215 0.435186C104.195 0.40519 104.165 0.385193 104.145 0.355198C104.11 0.309823 104.074 0.266426 104.035 0.225217C103.994 0.191884 103.95 0.161797 103.905 0.13523C103.861 0.105995 103.814 0.0824723 103.765 0.0652402C103.706 0.0461106 103.646 0.0327164 103.585 0.0252461C103.555 0.0252461 103.525 0.00524902 103.485 0.00524902H80.6681C80.6481 0.00524902 80.6381 0.0152475 80.6181 0.0152475C80.5781 0.0152475 80.5481 0.0252461 80.5081 0.0252461L80.3882 0.0552416C80.3582 0.0652402 80.3182 0.0852373 80.2882 0.0952359C80.2582 0.105234 80.2582 0.105234 80.2382 0.115233C80.2268 0.127583 80.2132 0.137749 80.1982 0.145228C80.1658 0.165378 80.1357 0.188834 80.1082 0.215218C80.0791 0.239302 80.0523 0.266084 80.0282 0.295206C80.0082 0.325202 79.9782 0.355198 79.9582 0.385193C79.9459 0.396587 79.9357 0.410141 79.9282 0.425187L57.3615 39.5194H35.0448C35.0248 39.5194 35.0148 39.5294 34.9948 39.5294C34.9548 39.5294 34.9248 39.5394 34.8848 39.5394C34.8448 39.5394 34.8048 39.5594 34.7748 39.5694C34.7408 39.581 34.7075 39.5944 34.6749 39.6094C34.6549 39.6194 34.6449 39.6194 34.6249 39.6294C34.6049 39.6394 34.6049 39.6494 34.5849 39.6594C34.5525 39.6796 34.5224 39.703 34.4949 39.7294C34.4658 39.7535 34.439 39.7803 34.4149 39.8094C34.3949 39.8394 34.3649 39.8694 34.3449 39.8994C34.3326 39.9108 34.3224 39.9243 34.3149 39.9394L0.0999316 99.2207C0.0853924 99.2525 0.0752991 99.2861 0.069936 99.3207C0.0487471 99.3725 0.0320221 99.426 0.0199433 99.4807C0.00407223 99.5324 -0.00269386 99.5866 -5.37512e-05 99.6406C-0.00170921 99.6942 0.00163817 99.7477 0.00994478 99.8006ZM102.995 1.705L136.24 59.2865H115.383L82.1279 1.705H102.995ZM114.403 98.8008H93.5362L115.373 60.9663H136.24L114.403 98.8008ZM80.6681 2.54488L113.913 60.1264L92.0764 97.9609L81.648 79.8835L92.8163 60.5464C92.8263 60.5264 92.8263 60.5164 92.8363 60.4964C92.8539 60.4649 92.8673 60.4313 92.8763 60.3964C92.8863 60.3564 92.8963 60.3264 92.9063 60.2864C92.9146 60.2504 92.918 60.2134 92.9163 60.1764C92.9163 60.1564 92.9263 60.1464 92.9263 60.1264C92.9263 60.1064 92.9163 60.0964 92.9163 60.0764C92.9163 60.0364 92.9063 60.0064 92.9063 59.9664C92.9063 59.9265 92.8863 59.8965 92.8763 59.8565C92.8647 59.8225 92.8514 59.7891 92.8363 59.7565C92.8263 59.7365 92.8263 59.7265 92.8163 59.7065L81.398 39.9494C81.378 39.9194 81.348 39.8994 81.328 39.8694C81.2938 39.824 81.2571 39.7806 81.218 39.7394C81.1771 39.7061 81.1336 39.676 81.088 39.6494C81.0435 39.6221 80.9966 39.5987 80.9481 39.5794C80.8935 39.5598 80.836 39.5497 80.7781 39.5494C80.7481 39.5494 80.7081 39.5294 80.6781 39.5294H59.3212L80.6681 2.54488ZM57.8615 41.2192H80.1882L90.6266 59.2865H46.9431L36.5046 41.2192H57.8615ZM35.0448 42.0591L45.4733 60.1264L12.2282 117.708L1.79968 99.6406L35.0448 42.0591ZM13.6979 118.548L46.9431 60.9663H90.6266L80.1882 79.0437H57.8615C57.8415 79.0437 57.8315 79.0537 57.8115 79.0537C57.7715 79.0537 57.7415 79.0637 57.7015 79.0637L57.5815 79.0936C57.5515 79.1036 57.5115 79.1236 57.4815 79.1336C57.4515 79.1436 57.4515 79.1436 57.4315 79.1536C57.4201 79.166 57.4066 79.1762 57.3915 79.1836C57.3592 79.2038 57.329 79.2272 57.3015 79.2536C57.2724 79.2777 57.2456 79.3045 57.2215 79.3336C57.2015 79.3636 57.1716 79.3936 57.1516 79.4236C57.1416 79.4336 57.1216 79.4436 57.1216 79.4636L45.7132 99.2207C45.6987 99.2525 45.6886 99.2861 45.6832 99.3207C45.6621 99.3725 45.6453 99.426 45.6332 99.4807C45.6246 99.5335 45.6213 99.5871 45.6233 99.6406C45.6216 99.6942 45.6249 99.7477 45.6332 99.8006C45.6439 99.8556 45.6606 99.9093 45.6832 99.9606C45.6932 99.9906 45.7032 100.031 45.7132 100.061L56.3917 118.548H13.6979ZM137.22 138.305H70.7296L81.158 120.238H147.648L137.22 138.305ZM69.2698 137.465L47.433 99.6406L57.8715 81.5633L79.7083 119.388L69.2698 137.465ZM147.648 118.548H81.158L59.3212 80.7234H80.1882L91.3565 100.061L91.3865 100.091C91.4064 100.126 91.4299 100.16 91.4565 100.191C91.4951 100.232 91.5388 100.269 91.5865 100.301C91.6165 100.321 91.6365 100.351 91.6665 100.371C91.6782 100.378 91.6924 100.382 91.7065 100.381C91.8197 100.444 91.9468 100.478 92.0764 100.481H114.893C115.026 100.478 115.156 100.444 115.273 100.381L115.363 100.321C115.448 100.264 115.522 100.193 115.583 100.111C115.593 100.091 115.623 100.081 115.633 100.061L126.311 81.5633L147.648 118.548Z" fill="white"/>
</g>
<defs>
<clipPath id="clip0_2001_67">
<rect width="149.938" height="140" fill="white"/>
</clipPath>
</defs>
</svg>
