<svg width="140" height="122" viewBox="0 0 140 122" fill="none" xmlns="http://www.w3.org/2000/svg">
<g clip-path="url(#clip0_2001_113)">
<path d="M116.539 101.368C116.549 101.358 116.549 101.338 116.559 101.328C116.578 101.298 116.592 101.264 116.599 101.228C116.609 101.198 116.619 101.158 116.629 101.128C116.637 101.096 116.641 101.062 116.639 101.028C116.639 101.008 116.649 100.998 116.649 100.978C116.649 100.958 116.639 100.948 116.639 100.928C116.639 100.908 116.629 100.858 116.629 100.828C116.629 100.798 116.609 100.759 116.599 100.729C116.588 100.694 116.575 100.661 116.559 100.629C116.549 100.619 116.549 100.599 116.539 100.589L105.323 81.1635H127.745C127.867 81.1598 127.986 81.129 128.095 81.0736C128.125 81.0536 128.145 81.0336 128.175 81.0136C128.256 80.9628 128.324 80.8944 128.375 80.8136C128.385 80.7936 128.405 80.7836 128.425 80.7636L139.781 61.0987C139.791 61.0887 139.791 61.0687 139.801 61.0587C139.82 61.028 139.833 60.9942 139.841 60.9587C139.851 60.9287 139.861 60.8887 139.871 60.8587C139.879 60.8261 139.882 60.7924 139.881 60.7588C139.881 60.7388 139.891 60.7288 139.891 60.7088C139.891 60.6888 139.881 60.6788 139.881 60.6588C139.881 60.6388 139.871 60.5888 139.871 60.5588C139.871 60.5288 139.851 60.4888 139.841 60.4588C139.83 60.4245 139.817 60.3911 139.801 60.3589C139.791 60.3489 139.791 60.3289 139.781 60.3189L128.425 40.6539C128.407 40.6285 128.387 40.6051 128.365 40.5839C128.334 40.5391 128.297 40.4988 128.255 40.464C128.213 40.4316 128.17 40.4016 128.125 40.374C128.084 40.3481 128.041 40.3279 127.995 40.314C127.944 40.2944 127.89 40.2843 127.835 40.284C127.805 40.284 127.775 40.264 127.745 40.264H105.323L116.539 20.839C116.549 20.829 116.549 20.809 116.559 20.799C116.578 20.7684 116.592 20.7345 116.599 20.699C116.609 20.669 116.619 20.629 116.629 20.5991C116.637 20.5664 116.641 20.5327 116.639 20.4991C116.639 20.4791 116.649 20.4691 116.649 20.4491C116.649 20.4291 116.639 20.4191 116.639 20.3991C116.639 20.3791 116.629 20.3291 116.629 20.2991C116.629 20.2691 116.609 20.2291 116.599 20.1992C116.588 20.1648 116.575 20.1314 116.559 20.0992C116.549 20.0892 116.549 20.0692 116.539 20.0592L105.193 0.394234C105.176 0.368848 105.155 0.345389 105.133 0.324252C105.103 0.281882 105.069 0.241785 105.033 0.204282C104.991 0.171967 104.948 0.141932 104.903 0.114306C104.863 0.0883799 104.819 0.0681911 104.773 0.0543209C104.722 0.0347465 104.668 0.0245853 104.613 0.0243288C104.583 0.0243288 104.553 0.0043335 104.523 0.0043335H81.8212C81.8012 0.0043335 81.7912 0.0143312 81.7712 0.0143312C81.7512 0.0143312 81.7012 0.0243288 81.6712 0.0243288L81.5613 0.0543209C81.5296 0.0633807 81.4992 0.0768416 81.4712 0.0943106C81.4595 0.102262 81.4454 0.105804 81.4313 0.104308L81.4013 0.1343C81.3729 0.151811 81.3462 0.17189 81.3214 0.194285C81.2923 0.218367 81.2654 0.245145 81.2413 0.274265C81.2214 0.304257 81.2014 0.324252 81.1814 0.354244C81.1691 0.365637 81.1589 0.379189 81.1514 0.394234L69.9354 19.8193L58.7194 0.394234C58.7019 0.368848 58.6818 0.345389 58.6593 0.324252C58.6255 0.281819 58.5887 0.241736 58.5494 0.204282C58.5118 0.174208 58.4717 0.147448 58.4294 0.124303C58.3891 0.0983767 58.3454 0.0781888 58.2995 0.0643185C58.2487 0.043859 58.1943 0.0336657 58.1395 0.0343265C58.1095 0.0343265 58.0796 0.0143312 58.0496 0.0143312H35.3476C35.3276 0.0143312 35.3176 0.0243288 35.2976 0.0243288C35.2776 0.0243288 35.2276 0.0343265 35.1977 0.0343265L35.0877 0.0643185C35.056 0.0733784 35.0256 0.0868393 34.9977 0.104308C34.9859 0.11226 34.9718 0.115802 34.9578 0.114306C34.9464 0.126655 34.9328 0.136819 34.9177 0.144298C34.8893 0.161809 34.8626 0.181887 34.8378 0.204282C34.8087 0.228363 34.7818 0.255143 34.7578 0.284262C34.7378 0.314255 34.7178 0.33425 34.6978 0.364242C34.6855 0.375634 34.6753 0.389187 34.6678 0.404232L23.3218 20.0692C23.3074 20.0975 23.2973 20.1278 23.2918 20.1592C23.2707 20.2076 23.2539 20.2577 23.2418 20.3091C23.2285 20.4087 23.2285 20.5095 23.2418 20.6091C23.2539 20.6604 23.2707 20.7106 23.2918 20.759C23.2973 20.7903 23.3074 20.8207 23.3218 20.849L34.5379 40.274H12.1158C12.0958 40.274 12.0858 40.284 12.0658 40.284C12.0458 40.284 11.9959 40.294 11.9659 40.294L11.8559 40.324C11.8242 40.3331 11.7938 40.3465 11.7659 40.364C11.7559 40.374 11.736 40.374 11.726 40.384L11.6959 40.414C11.6675 40.4315 11.6408 40.4516 11.616 40.474C11.5869 40.498 11.56 40.5248 11.536 40.5539C11.516 40.5839 11.496 40.6039 11.4761 40.6339C11.4637 40.6453 11.4535 40.6589 11.446 40.6739L0.0900553 60.3389C0.0756165 60.3672 0.0654783 60.3975 0.0600366 60.4288C0.0389051 60.4772 0.0221278 60.5274 0.0100054 60.5788C-0.00333514 60.6783 -0.00333514 60.7792 0.0100054 60.8787C0.0221278 60.9301 0.0389051 60.9803 0.0600366 61.0287C0.0654783 61.06 0.0756165 61.0903 0.0900553 61.1187L11.446 80.7836L11.4761 80.8136C11.4962 80.8459 11.5196 80.8761 11.546 80.9036C11.586 80.9436 11.6259 80.9736 11.6659 81.0136C11.6959 81.0336 11.706 81.0636 11.736 81.0736C11.7477 81.0815 11.7618 81.085 11.7759 81.0835C11.8844 81.139 12.0039 81.1698 12.1257 81.1735H34.5479L23.3419 100.599C23.3274 100.627 23.3173 100.657 23.3118 100.689C23.2907 100.737 23.2739 100.787 23.2618 100.838C23.2485 100.938 23.2485 101.039 23.2618 101.138C23.2739 101.19 23.2907 101.24 23.3118 101.288C23.3173 101.32 23.3274 101.35 23.3419 101.378L34.6878 121.043L34.7178 121.073C34.738 121.106 34.7614 121.136 34.7878 121.163C34.8278 121.203 34.8677 121.233 34.9077 121.273C34.9377 121.293 34.9478 121.323 34.9778 121.333C34.9895 121.341 35.0036 121.345 35.0177 121.343C35.1262 121.399 35.2457 121.429 35.3675 121.433H58.0696C58.1914 121.429 58.3109 121.399 58.4194 121.343C58.4494 121.323 58.4694 121.303 58.4994 121.283C58.5802 121.232 58.6486 121.164 58.6994 121.083C58.7094 121.063 58.7293 121.053 58.7493 121.033L69.9654 101.608L81.1814 121.033L81.2114 121.063C81.2316 121.096 81.255 121.126 81.2814 121.153C81.3214 121.193 81.3613 121.223 81.4013 121.263C81.4313 121.283 81.4413 121.313 81.4712 121.323C81.483 121.331 81.4972 121.335 81.5113 121.333C81.6198 121.389 81.7393 121.419 81.8611 121.423H104.563C104.685 121.419 104.804 121.389 104.913 121.333C104.943 121.313 104.963 121.293 104.993 121.273C105.074 121.222 105.142 121.154 105.193 121.073C105.203 121.053 105.223 121.043 105.243 121.023L116.539 101.368ZM104.053 119.854H83.1607L93.607 101.758H114.5L104.053 119.854ZM57.5698 119.854H36.6771L59.0192 81.1635H79.9119L57.5698 119.854ZM13.4353 79.5839L23.8816 61.4886H68.5559L58.1095 79.5839H13.4353ZM12.0758 42.6134L22.5221 60.7088L12.0758 78.8041L1.62943 60.7088L12.0758 42.6134ZM24.8712 20.4391L35.3176 2.34373L57.6597 41.0338L47.2134 59.1292L24.8712 20.4391ZM81.8112 2.35373L92.2575 20.4491L69.9254 59.1392L59.479 41.0438L81.8112 2.35373ZM104.053 1.56393L114.5 19.6593H93.607L83.1607 1.56393H104.053ZM127.305 41.8336L137.751 59.929H93.0773L82.6309 41.8336H127.305ZM81.2614 42.6134L91.2478 59.919H71.2649L81.2614 42.6134ZM68.5559 59.919H48.5729L58.5594 42.6134L68.5559 59.919ZM69.9154 62.2784L79.9018 79.5839H59.9189L69.9154 62.2784ZM71.2749 61.4986H92.1575L114.49 100.189H93.597L71.2749 61.4986ZM93.9768 61.4986H137.741L127.295 79.5939H104.413L93.9768 61.4986ZM82.6309 40.254L93.617 21.2289H114.51L103.524 40.254H82.6309ZM58.5594 39.4742L36.6771 1.56393H57.5698L69.0157 21.3789L58.5594 39.4742ZM45.8439 59.919H23.8716L13.4253 41.8236H35.3975L45.8439 59.919ZM57.1999 81.1635L35.3176 119.074L24.8712 100.978L36.3073 81.1635H57.1999ZM81.2614 81.9433L92.2475 100.968L81.8012 119.064L70.8151 100.029L81.2614 81.9433Z" fill="white"/>
</g>
<defs>
<clipPath id="clip0_2001_113">
<rect width="139.891" height="121.438" fill="white"/>
</clipPath>
</defs>
</svg>
